<mxfile host="app.diagrams.net" modified="2023-04-24T20:31:35.458Z" agent="Mozilla/5.0 (Windows NT 10.0; Win64; x64) AppleWebKit/537.36 (KHTML, like Gecko) Chrome/111.0.0.0 Safari/537.36 OPR/97.0.0.0" version="21.1.8" etag="ViXl0OAJKQ70pkVADQ9o" type="github">
  <diagram name="Страница 1" id="fus3UCLR4r3EciPbLhmt">
    <mxGraphModel>
      <root>
        <mxCell id="0" />
        <mxCell id="1" parent="0" />
      </root>
    </mxGraphModel>
  </diagram>
</mxfile>
